<?xml version="1.0" encoding="utf-8"?>
<!-- Generator: Adobe Illustrator 19.0.0, SVG Export Plug-In . SVG Version: 6.00 Build 0)  -->
<svg version="1.1" id="Livello_1" xmlns="http://www.w3.org/2000/svg" xmlns:xlink="http://www.w3.org/1999/xlink" x="0px" y="0px"
	 viewBox="0 0 456 456" style="enable-background:new 0 0 456 456;" xml:space="preserve">
<style type="text/css">
	.st0{fill:#FFFFFF;}
</style>
<g>
	<path class="st0" d="M244.8,128.3c18.7,0,37.5,0,56.2,0c5.5,0,6.3,1.4,5.4,6.6c-1.9,10.4-3.3,20.8-5,31.2c-1,5.8-2.3,11.6-3.2,17.4
		c-1.3,7.6-2.2,15.3-3.5,22.9c-1.1,6.4-2.3,12.8-3.9,19.1c-0.4,1.5-2.2,2.9-3.7,3.9c-13,8.7-26,17.4-39,26
		c-15.6,10.3-31.2,20.7-46.8,30.9c-14.3,9.4-29.1,18.1-42.7,28.4c-6.6,5-11.9,3.2-18,1.4c-14.9-4.4-29.8-8.9-44.8-13.4
		c-3.3-1-5.7-4.5-5.7-8.1c0-16.1,0.2-32.2-0.1-48.4c-0.1-5.1,1.4-9.1,4.6-12.7c9.2-10.7,18.5-21.3,27.6-32.1
		c9.6-11.4,19-23.1,28.6-34.5c8.1-9.6,16.4-18.9,24.5-28.4c2.3-2.6,4.1-5.7,6.7-7.9c1.7-1.4,4.4-2.3,6.6-2.4
		C207.3,128.3,226.1,128.3,244.8,128.3z"/>
	<path class="st0" d="M178.5,326c39.9-26.3,78.8-52,118.3-78c3.8,5.1,7.6,9.9,11.2,14.9c5.9,8,11.7,16.2,17.6,24.2
		c1.9,2.5,1.1,4.4-1.1,5.9c-18.6,12.9-37.3,25.7-55.9,38.5c-6.9,4.7-13.7,9.5-20.6,14.1c-1.3,0.9-3.5,1.3-4.9,0.9
		c-13.2-3.7-26.4-7.6-39.5-11.5c-6.5-1.9-12.9-3.7-19.3-5.8C182.4,328.6,180.9,327.4,178.5,326z"/>
	<path class="st0" d="M344.7,278.3c-5.1-6.9-10.1-13.4-14.9-20.1c-6-8.3-11.8-16.7-17.6-25.1c-0.8-1.2-1.3-3.1-1.1-4.6
		c1.9-12.1,4-24.2,6.2-36.3c1.8-9.6,3.9-19.2,5.7-28.9c1.3-6.9,2.1-13.8,3.3-20.7c0.7-3.9,1.4-7.7,2.5-11.5c0.3-1,2-2.4,3-2.3
		c1.4,0.1,3.2,1.1,3.8,2.3c1.4,2.9,2.3,6.2,3.3,9.3c4.6,14.5,9.2,28.9,13.8,43.4c3.9,12.5,7.8,25.1,11.8,37.5
		c3.3,10.1,6.9,20.1,10,30.3c0.5,1.6-0.9,4.5-2.3,5.6c-8.1,6.8-16.6,13.2-24.9,19.8C346.7,277.4,346,277.6,344.7,278.3z"/>
</g>
</svg>
