<?xml version="1.0" encoding="utf-8"?>
<!-- Generator: Adobe Illustrator 19.0.0, SVG Export Plug-In . SVG Version: 6.00 Build 0)  -->
<svg version="1.1" id="Livello_1" xmlns="http://www.w3.org/2000/svg" xmlns:xlink="http://www.w3.org/1999/xlink" x="0px" y="0px"
	 viewBox="0 0 456 456" style="enable-background:new 0 0 456 456;" xml:space="preserve">
<style type="text/css">
	.st0{fill:#FFFFFF;}
</style>
<g>
	<path class="st0" d="M349,253.5c-0.7,24.7-5.6,44.1-16,62.3c-6.4,11.3-14.4,21.3-23.9,30c-8.5,7.7-17.8,14.3-28.4,18.9
		c-2.5,1.1-4.3,0.8-6.1-1.2c-8.5-9.6-16.3-19.8-22-31.2c-5.8-11.5-10.6-23.4-12.6-36.3c-1.4-9.1-2.8-18.3-3.7-27.4
		c-0.4-4.6,0.1-9.4,0.7-14.1c1-7.5,2-15.1,3.8-22.5c1.8-7.3,4.4-14.5,6.9-21.6c0.4-1.1,2.1-2.2,3.4-2.5c10.7-3.3,20.7-7.9,30-14.4
		c9.6-6.7,17.5-14.8,24-24.4c1.6-2.4,2.9-2.2,4.7-0.5c8.8,8.4,16.2,17.9,22.5,28.3c6.1,9.9,10.3,20.7,13,31.8
		C347.7,237.9,348.2,247.7,349,253.5z"/>
	<path class="st0" d="M147,167.6c3.7,4.3,6.5,7.4,9.1,10.6c9.4,11.5,21.1,19.7,34.9,25.2c4.1,1.6,8.3,2.8,12.4,4.4
		c1.1,0.4,2.5,1.4,2.9,2.5c2.4,6.5,5,13,6.7,19.7c2,7.9,3.7,16,4.3,24.1c0.6,8.1,0.1,16.4-0.4,24.6c-0.3,5.4-1,10.8-2.3,16
		c-2.3,9.1-4.8,18.2-8,27c-5.4,14.8-14.7,27.4-24.5,39.6c-3.5,4.3-5.2,4.3-11.8,0.4c-10.2-6-19.9-12.8-28.1-21.4
		c-11.7-12.3-20.6-26.6-26.5-42.6c-3.8-10.4-5.7-21.2-7-32.2c-1.6-14,0.8-27.4,4.4-40.8c4.7-17.3,13.4-32.5,24.7-46.3
		C140.7,174.9,143.8,171.4,147,167.6z"/>
	<path class="st0" d="M165.5,154.5c6.5-3.2,12.4-6.1,18.3-8.9c3.2-1.5,3.7-2.5,1.7-5.5c-6.2-8.8-12.5-17.6-18.9-26.3
		c-5.9-8,0-18.1,9.3-19c4.7-0.4,8.4,3.1,11.3,7.2c7.8,11,15.9,21.8,23.7,32.8c3.3,4.6,7.5,2.1,11.4,2.3c4.3,0.1,8.6-0.2,12.8,0.2
		c3.5,0.3,5.7-1.5,7.5-3.9c8.5-11.6,16.9-23.2,25.3-34.8c2.2-3,8.4-4.9,11.7-3.7c5.7,2.2,8.6,6.5,8.5,11.8c0,6.1-4.5,9.6-7.4,14
		c-4.2,6.3-8.7,12.5-13.3,18.5c-2,2.6-1.1,3.6,1.3,4.7c5.8,2.6,11.6,5.3,17.4,7.8c2.9,1.2,2.9,2.8,1.3,5.1
		c-11.9,18-28.7,28.5-49.9,32.2c-17.5,3-33.9-1.1-48.9-10c-8.2-4.8-15.3-11.3-20.6-19.5C167.3,158.2,166.6,156.6,165.5,154.5z"/>
</g>
</svg>
