<?xml version="1.0" encoding="utf-8"?>
<!-- Generator: Adobe Illustrator 19.0.0, SVG Export Plug-In . SVG Version: 6.00 Build 0)  -->
<svg version="1.1" id="Livello_1" xmlns="http://www.w3.org/2000/svg" xmlns:xlink="http://www.w3.org/1999/xlink" x="0px" y="0px"
	 viewBox="0 0 456 456" style="enable-background:new 0 0 456 456;" xml:space="preserve">
<style type="text/css">
	.st0{fill:#FFFFFF;}
</style>
<g>
	<path class="st0" d="M212,91.5c13.7,0,27.5,0.2,41.2-0.1c8.2-0.2,12.1,3.7,14.3,10.3c3.8,11.6,7.2,23.3,10.8,34.9
		c5.5,17.7,10.9,35.4,16.5,53c3.3,10.6,7,21.1,10.4,31.6c2.4,7.3,4.6,14.6,6.8,22c0.8,2.7-2.6,8.9-5.9,10.1
		c-2.5,0.9-5.2,1.5-7.8,1.6c-17.2,0.1-34.5,0.1-51.7,0.1c-6.2,0-6.6,0.4-4.9,6.2c4.1,13.5,8.3,27,12.3,40.5
		c4,13.3,7.7,26.7,11.5,40.1c2,7.2,4,14.3,6.1,21.5c1.9,6.3-4.6,14.1-10.8,12.3c-2.9-0.8-5.8-3.5-7.7-6
		c-17-22.8-33.9-45.6-50.7-68.6c-15.6-21.2-31.1-42.5-46.7-63.8c-8.9-12.1-18-23.9-26.8-36c-1.6-2.3-3.9-4.7-2.1-8.3
		c2.3-4.5,5.4-7.6,10.7-7.6c13.1-0.1,26.2,0,39.4,0c4.5,0,5.1-1,3.7-5.3c-5.1-16.2-10-32.4-15-48.6c-2.7-8.6-5.2-17.3-8.2-25.7
		c-2.7-7.5,2.9-14,10.3-14.1C182.5,91.4,197.3,91.5,212,91.5z"/>
</g>
</svg>
