<?xml version="1.0" encoding="utf-8"?>
<!-- Generator: Adobe Illustrator 19.0.0, SVG Export Plug-In . SVG Version: 6.00 Build 0)  -->
<svg version="1.1" id="Livello_1" xmlns="http://www.w3.org/2000/svg" xmlns:xlink="http://www.w3.org/1999/xlink" x="0px" y="0px"
	 viewBox="0 0 456 456" style="enable-background:new 0 0 456 456;" xml:space="preserve">
<style type="text/css">
	.st0{fill:#FFFFFF;}
</style>
<g>
	<path class="st0" d="M228.1,96.8c73.9-0.3,134.8,60.4,133.1,136.3c-1.6,69.4-57.9,131.2-136.9,129.6
		c-69.2-1.4-132.1-58.2-129.5-138.4C97,157.2,152.2,96.6,228.1,96.8z M231.8,323.6c0.2,0.4,0.4,0.8,0.6,1.2c2.7-0.3,5.5-0.3,8.2-0.9
		c8.5-2.1,17.3-3.6,25.4-6.8c12-4.8,22.5-12.3,31.5-21.7c8.2-8.6,14.6-18.4,19.1-29.5c3.5-8.8,6.2-17.9,6.6-27.4
		c0.3-8.7-0.4-17.6-1.4-26.3c-1.6-14.1-7.7-26.4-15.7-37.9c-6.2-9-13.9-16.7-22.9-22.9c-9.7-6.6-20-11.8-31.6-14.2
		c-5.3-1.1-10.6-2-15.9-2.9c-0.9-0.1-2,0.6-3,0.9c0.4,1,0.6,2.1,1.2,2.8c3.2,3.9,6.8,7.6,9.9,11.5c17,21.7,26.3,46.5,27.6,74
		c0.4,9.3,0,18.8-1.6,27.9c-2.6,15.4-7.8,30.2-16,43.5c-5.4,8.9-12.7,16.6-19.1,24.8C233.7,321.2,232.7,322.4,231.8,323.6z"/>
</g>
</svg>
