<?xml version="1.0" encoding="utf-8"?>
<!-- Generator: Adobe Illustrator 19.0.0, SVG Export Plug-In . SVG Version: 6.00 Build 0)  -->
<svg version="1.1" id="Livello_1" xmlns="http://www.w3.org/2000/svg" xmlns:xlink="http://www.w3.org/1999/xlink" x="0px" y="0px"
	 viewBox="0 0 456 456" style="enable-background:new 0 0 456 456;" xml:space="preserve">
<style type="text/css">
	.st0{fill:#FFFFFF;}
</style>
<g>
	<path class="st0" d="M348.8,187.1c0,24.6-0.4,49.2,0.1,73.7c0.3,13.2-2.1,25.7-6.3,38c-4.8,13.9-12.1,26.2-21.9,37.2
		c-8,9-17.6,15.6-28,21.3c-10,5.5-20.6,9.1-31.6,11.5c-10.3,2.3-20.8,2.4-31.4,2.6c-19.4,0.4-37.4-4.6-55-12.2
		c-13.6-5.8-25.8-13.8-36.6-23.8c-11-10.2-19.4-22.5-26-36c-5.6-11.6-9.3-23.7-11.4-36.2c-1.4-8.2-2.2-16.8-1.5-25.1
		c0.8-9.6,3.3-19,7.5-27.9c6.2-13.3,15.7-23.7,27.5-32.1c1.1-0.8,2.1-2.7,2.1-4c0.2-12.4,0.1-24.7,0.1-37.1c0-14.3,6.5-25,18.7-31.7
		c12.1-6.6,25.6-5,36.6,4.5c2.3,2,4.1,2.4,6.8,0.5c16.3-11.4,38.1-6.8,48.8,9.6c1.8,2.8,3.8,2.6,6.3,1.7c14.2-5.1,26.6-1.9,37.2,8.6
		c2.5,2.5,4.2,5.7,6.2,8.7c1.5,2.3,2.7,3.1,6,2.2c9-2.6,17.8-2.2,26.4,2.6c5.4,3,9.7,6.9,13,11.9c3.2,4.9,5.5,10.4,5.7,16.4
		c0.2,5.1,0,10.2,0,15.4C348.3,187.1,348.5,187.1,348.8,187.1z"/>
</g>
</svg>
