<?xml version="1.0" encoding="utf-8"?>
<!-- Generator: Adobe Illustrator 19.0.0, SVG Export Plug-In . SVG Version: 6.00 Build 0)  -->
<svg version="1.1" id="Livello_1" xmlns="http://www.w3.org/2000/svg" xmlns:xlink="http://www.w3.org/1999/xlink" x="0px" y="0px"
	 viewBox="0 0 456 456" style="enable-background:new 0 0 456 456;" xml:space="preserve">
<style type="text/css">
	.st0{fill:#FFFFFF;}
</style>
<g>
	<path class="st0" d="M255.7,315.7c-33.6,0-67.2-0.1-100.8,0.1c-4.8,0-4.8-2.3-3.7-5.3c4.9-13.8,10-27.6,15-41.4
		c6.4-17.7,12.9-35.3,19.4-53c3.4-9.3,6.6-18.7,9.9-28c4.1-11.4,8.3-22.7,12.4-34.1c3.3-9.1,6.5-18.2,9.6-27.3
		c1-2.9,3.2-3.7,5.7-3.7c21.4-0.1,42.7,0,64.1,0c3.2,0,5.3,1.4,6.4,4.6c3.8,11.1,7.7,22.2,11.7,33.2c2.5,6.9,5.1,13.7,7.7,20.6
		c4.4,12,8.8,24.1,13.2,36.2c4.1,11.1,8.2,22.2,12.2,33.4c4.5,12.4,8.9,24.9,13.3,37.3c2.7,7.6,5.6,15.1,8.2,22.7
		c1.5,4.2,1,4.7-3.4,4.7C322.9,315.8,289.3,315.7,255.7,315.7z"/>
	<path class="st0" d="M161.2,182.3c5.7,0,11.5,0,17.2,0c3.7,0,4.6,1,3.4,4.5c-3.8,10.6-7.8,21.1-11.6,31.6
		c-4.8,13.2-9.4,26.5-14.3,39.7c-5,13.5-10.2,27-15.3,40.5c-1.5,4.1-2.9,8.3-4.4,12.5c-1.1,3.2-3.1,4.9-6.9,4.8
		c-11-0.2-22-0.1-33-0.1c-4.2,0-5.2-1.2-3.7-5.2c3.2-8.9,6.6-17.6,9.9-26.5c2.6-6.9,5.1-13.8,7.7-20.7c5-13.6,10.1-27.3,15.1-40.9
		c3.3-8.8,6.5-17.7,9.7-26.5c1.3-3.5,2.8-7,4-10.6c0.8-2.4,2.2-3.2,4.6-3.2C149.5,182.3,155.3,182.3,161.2,182.3z"/>
</g>
</svg>
