<?xml version="1.0" encoding="utf-8"?>
<!-- Generator: Adobe Illustrator 19.0.0, SVG Export Plug-In . SVG Version: 6.00 Build 0)  -->
<svg version="1.1" id="Livello_1" xmlns="http://www.w3.org/2000/svg" xmlns:xlink="http://www.w3.org/1999/xlink" x="0px" y="0px"
	 viewBox="0 0 456 456" style="enable-background:new 0 0 456 456;" xml:space="preserve">
<style type="text/css">
	.st0{fill:#FFFFFF;}
</style>
<g>
	<path class="st0" d="M252.8,282.1c-15.2-3.5-31.1-2.7-47.2-6c3.7-5.5,6.9-10.4,10.2-15.2c2.4-3.5,5.5-6.7,7.3-10.6
		c2.5-5.4,7.2-5.7,11.8-6.6c7.4-1.5,14.9-2.8,22.4-4.1c2.8-0.5,5.6-0.7,8.4-1.2c1.2-0.2,2.4-0.8,3.6-1.2c0-0.5,0-1,0-1.5
		c-10.2-1.8-20.4-3.7-31.4-5.7c1.2-2.4,2-4.5,3.2-6.2c9.6-14.1,19.3-28.1,29-42.2c2.1-3.1,4.1-6.2,6.2-9.3c-0.3-0.3-0.7-0.6-1-0.9
		c-2.1,2.1-4.3,4.1-6.2,6.3c-7.5,8.6-14.8,17.3-22.2,25.9c-4.9,5.7-9.9,11.4-14.8,17.1c-2.2,2.6-3.2,2.7-4.8-0.7
		c-3.1-6.4-5.9-12.9-8.9-19.4c-0.9-1.9-2.1-3.8-3.1-5.6c-0.4,0.1-0.9,0.1-1.3,0.2c0,2.3-0.2,4.7,0,7c0.7,8.1,1.4,16.2,2.2,24.3
		c0.2,2.3,0.4,4.7,0.7,7c0.6,3.5-0.8,6.3-2.9,8.8c-6.3,7.3-12.6,14.6-18.9,21.9c-1.6,1.9-3,1.5-3.8-0.8c-2-5.1-4-10.3-5.9-15.4
		c-3-8-6-16-9-24c-0.2-0.6-0.9-1-2.3-1.3c0,2.7,0,5.3,0,8c0,3.4-0.1,6.7,0.1,10.1c0.7,11.6,1.4,23.2,2.2,34.8
		c0.4,6.2-0.2,11.5-5.1,16.5c-7.5,7.7-13.8,16.4-20.6,24.7c-5.8,6.9-11.7,13.8-17.5,20.7c-0.2,0.2-0.4,0.3-0.5,0.5
		c-5,5.5-5.1,5.4-10.5,0.2c-13.7-13.2-23.7-28.9-30.1-46.7c-2.9-8.3-5.3-16.8-5.7-25.7c-0.2-4.7-1.7-9.4-1.3-13.9
		c0.8-9.3,2.2-18.5,4-27.6c3-15,10-28.4,18.6-40.8c7.2-10.4,16.4-19.1,26.8-26.5c15.9-11.3,33.2-19.9,51.5-26.3
		c11.5-4,23.4-6.9,35.2-9.9c8.5-2.2,17.1-4.4,25.7-5.9c8.7-1.5,17.6-2.3,26.4-3.1c10.8-1,21.7-1.6,32.6-2.3
		c3.9-0.2,7.9-0.6,11.7-0.1c4.6,0.6,7.1,3.9,8.1,8.5c2.4,11,5.2,21.9,7.4,32.9c1.7,8.7,2.5,17.5,3.9,26.2c2.9,19,3.5,38.1,2.8,57.2
		c-0.4,10.7-1.9,21.3-3.6,31.9c-1.5,9.3-3.5,18.5-6.1,27.6c-4.5,15.8-11.6,30.3-22,43.2c-9.7,11.9-21.2,21.6-34.6,29
		c-12,6.6-24.9,11.4-38.7,12.9c-9,1-18.1,1.7-27.1,1.4c-10.2-0.3-20.2-2.4-29.7-6.3c-7.4-3-14.7-6.5-21.9-9.9
		c-1.9-0.9-3.6-2-5.3-3.3c-1.9-1.5-1-3.1,0.1-4.8c8.7-12.6,17.4-25.3,26-38c3.7-5.5,7.7-10.8,11.1-16.5c2.4-3.9,5.8-5.7,10.1-6.6
		c6.2-1.3,12.5-2.5,18.7-3.8c9.8-2,19.7-4,29.5-6c2.2-0.5,4.4-1.3,6.5-1.9C252.7,282.7,252.8,282.4,252.8,282.1z"/>
</g>
</svg>
