<?xml version="1.0" encoding="utf-8"?>
<!-- Generator: Adobe Illustrator 19.0.0, SVG Export Plug-In . SVG Version: 6.00 Build 0)  -->
<svg version="1.1" id="Livello_1" xmlns="http://www.w3.org/2000/svg" xmlns:xlink="http://www.w3.org/1999/xlink" x="0px" y="0px"
	 viewBox="0 0 456 456" style="enable-background:new 0 0 456 456;" xml:space="preserve">
<style type="text/css">
	.st0{fill:#FFFFFF;}
</style>
<g>
	<path class="st0" d="M228.7,365.4c-34.8,0-65.2-11.9-90.9-34.8c-30.5-27-46.3-62-46.4-102.2c-0.1-34.9,12.7-66.4,37-92.4
		c28.1-30,62.9-45.3,103.8-44.3c72.4,1.8,134.4,61.1,133.5,139.6c-0.4,39.2-16.4,72.2-45.3,98.5
		C294.6,353.4,263.9,365.3,228.7,365.4z M228.6,299.4c39.5,0.1,71.1-30.8,71.4-69.9c0.3-38.3-28.3-73.7-76.8-71.7
		c-18.8,0.8-34.7,9.2-47.4,23.1c-13.5,14.7-19.3,32.6-18.1,52.1C159.8,269.6,189.3,299.2,228.6,299.4z"/>
</g>
</svg>
