<?xml version="1.0" encoding="utf-8"?>
<!-- Generator: Adobe Illustrator 19.0.0, SVG Export Plug-In . SVG Version: 6.00 Build 0)  -->
<svg version="1.1" id="Livello_1" xmlns="http://www.w3.org/2000/svg" xmlns:xlink="http://www.w3.org/1999/xlink" x="0px" y="0px"
	 viewBox="0 0 456 456" style="enable-background:new 0 0 456 456;" xml:space="preserve">
<style type="text/css">
	.st0{fill:#FFFFFF;}
</style>
<g>
	<path class="st0" d="M141.9,135.8c3.7,1.1,7.8,2.2,11.9,3.4c6.6,1.9,13.1,3.7,19.7,5.6c2.6,0.7,5.1,1.8,7.7,2.1
		c1.1,0.1,2.8-0.9,3.4-1.9c4.8-8.3,9.5-16.8,14.2-25.2c6.9-12.3,13.8-24.6,20.8-36.9c1.7-3.1,3.3-6.3,5.5-9c2.6-3.2,6.8-2.2,8.8,1.5
		c5.5,10.3,11,20.6,16.6,30.8c6.3,11.6,12.7,23.2,19.2,34.7c3.6,6.4,3.5,7.4,12.1,4.4c8.4-2.9,17.1-5,25.6-7.4
		c1.4-0.4,2.8-1.1,4.2-1.2c2.3-0.2,5.1-0.9,6.9,0.1c2.8,1.5,3.5,4.7,2.6,8c-3.3,11.2-6.3,22.5-9.9,33.7c-1.2,3.7-0.3,5.8,2.8,7.5
		c8.9,4.8,17.9,9.5,26.7,14.4c14.2,7.8,28.3,15.5,42.4,23.5c4.6,2.6,4.6,7.5,0.1,10.2c-8.3,4.9-16.8,9.6-25.2,14.2
		c-14.9,8.2-29.7,16.4-44.6,24.5c-2.5,1.4-2.9,3-2.1,5.7c3.6,11.9,7.1,23.8,10.5,35.7c1.3,4.5-3.3,9.4-7.9,8.1
		c-8.6-2.4-17.1-5-25.6-7.5c-3.5-1-6.9-2.3-10.4-3.3c-2.9-0.8-4.9,0.3-6.4,3c-6.4,11.8-12.8,23.6-19.3,35.4
		c-5.8,10.6-11.5,21.3-17.4,31.8c-1,1.8-2.5,3.6-4.3,4.5c-1.2,0.6-4,0.3-4.7-0.6c-3-3.8-5.8-7.9-8.2-12.1
		c-7.7-13.9-15.3-27.9-22.9-41.9c-3.2-5.8-6.4-11.6-9.4-17.5c-1.6-3-3.8-3.4-6.7-2.5c-9.7,2.9-19.4,5.8-29.1,8.7
		c-2.1,0.6-4.2,1.1-6.4,1.6c-5.9,1.3-9.3-2.7-7.6-8.6c3.5-11.8,6.8-23.7,10.2-35.5c0.8-2.7-0.1-4.2-2.5-5.5
		c-14.3-7.8-28.4-15.7-42.7-23.5c-7.7-4.2-15.5-8.3-23.2-12.5c-1.4-0.8-2.8-1.6-3.9-2.7c-4.6-4.4-4.2-7.6,1.5-10.7
		c10-5.6,20.2-10.9,30.3-16.4c11.2-6.1,22.5-12.3,33.6-18.7c8-4.6,7.8-4.8,5.5-13.1c-3-10.5-5.8-21.1-8.7-31.7
		C134.6,139.2,137.5,135.7,141.9,135.8z M179.7,228.5c1.4,1.6,2.1,2.8,3.2,3.4c6.1,3.5,12.3,6.9,18.5,10.3c4.2,2.3,8.5,4.2,10.9,8.9
		c4.1,8,8.5,15.9,12.9,23.8c0.6,1.1,2.2,2.6,3.2,2.4c1.2-0.2,2.6-1.6,3.3-2.8c3.6-6.4,7-12.9,10.5-19.3c2.6-4.8,5.2-9.1,10.7-11.6
		c7.6-3.5,14.8-7.9,22.1-12c2.3-1.3,2.6-4,0.4-5.2c-5.8-3.3-11.7-6.6-17.7-9.5c-6.6-3.3-12.3-6.9-15.5-14.1
		c-3.1-7-7.3-13.5-11.1-20.2c-1.5-2.6-3.9-2.5-5.3,0c-3.8,6.8-7.6,13.7-11.4,20.5c-1.4,2.5-2.6,5.6-4.7,7
		c-8.7,5.6-17.8,10.5-26.7,15.8C181.8,226.3,181.1,227.3,179.7,228.5z"/>
</g>
</svg>
