<?xml version="1.0" encoding="utf-8"?>
<!-- Generator: Adobe Illustrator 19.0.0, SVG Export Plug-In . SVG Version: 6.00 Build 0)  -->
<svg version="1.1" id="Livello_1" xmlns="http://www.w3.org/2000/svg" xmlns:xlink="http://www.w3.org/1999/xlink" x="0px" y="0px"
	 viewBox="0 0 456 456" style="enable-background:new 0 0 456 456;" xml:space="preserve">
<style type="text/css">
	.st0{fill:#FFFFFF;}
</style>
<g>
	<path class="st0" d="M224.2,286.3c0,12.4-0.3,24.8,0.2,37.1c0.2,5.6-2.3,8.4-6.7,10.6c-13,6.7-25.9,13.4-38.9,20.2
		c-9.4,5-18.7,10.2-28.1,15.1c-1.4,0.7-4.3,1.5-4.5,1.2c-1.1-1.9-1.9-4.2-2.1-6.4c-0.2-2.4,0.6-4.9,0.6-7.3
		c-0.1-6-0.7-11.9-0.7-17.9c0.1-14.1,0.5-28.1,0.7-42.2c0-2.2-0.5-4.4-0.7-6.6c-0.3-3.5,0.8-6.3,3.9-8.1
		c17.4-9.9,34.8-19.7,52.2-29.5c6.1-3.4,12.2-6.9,18.3-10.2c3.7-2,5.6-0.7,5.7,3.5C224.2,259.3,224.2,272.8,224.2,286.3z"/>
	<path class="st0" d="M234,286.3c0-13.2,0-26.5,0-39.7c0-1-0.2-2.1,0.1-3c0.6-2.1,1.5-3.5,4.2-1.9c8.5,4.9,17.1,9.6,25.6,14.4
		c13.2,7.4,26.4,14.9,39.6,22.4c1.7,1,3.5,1.8,5.1,3c2.5,1.9,4.2,4,4.2,7.7c-0.1,14.2,0.5,28.4,0.6,42.6c0.1,11.6,0,23.3,0,34.9
		c0,4.4-1,5.1-4.9,3.1c-15.2-7.9-30.4-15.9-45.6-23.9c-8.6-4.5-17.1-9.1-25.6-13.5c-2.5-1.3-3.4-3.1-3.3-6
		C234.1,313.1,234,299.7,234,286.3z"/>
	<path class="st0" d="M224.2,173.4c0,12.1,0,24.2,0,36.3c0,5.1-1.8,6.3-6.2,3.9c-13.4-7.1-26.8-14.2-40.2-21.3
		c-8.7-4.6-17.4-9-26.2-13.5c-6.6-3.4-7.2-5-6.9-12.4c0.4-7.7,0.2-15.5,0.1-23.2c-0.1-7.1-0.7-14.1-0.7-21.2
		c0-10.2,0.4-20.4,0.7-30.6c0.1-2.6,1.6-3.4,4-2c8.6,4.9,17.3,9.7,25.9,14.6c8.8,5,17.6,10.1,26.5,15.1c6.4,3.6,12.9,7.1,19.3,10.7
		c2.5,1.5,3.7,3.7,3.6,6.8C224.1,148.9,224.2,161.1,224.2,173.4z"/>
	<path class="st0" d="M234,172.9c0-11.9,0.2-23.8-0.1-35.6c-0.1-4.5,1.7-7,5.4-9.1c16.1-8.9,32.1-18,48.2-27c7.1-4,14.1-8,21.2-11.8
		c2.9-1.6,4.8-0.5,4.7,2.9c-0.1,6-0.6,11.9-0.6,17.9c0,6.1,0.5,12.2,0.7,18.2c0.1,6.3,0.1,12.6,0,18.8c-0.2,8.2-0.2,16.4-0.9,24.6
		c-0.2,2.1-2.7,4.7-4.8,5.9c-12.1,6.6-24.3,12.9-36.5,19.3c-10.7,5.6-21.3,11.2-32,16.7c-3.9,2-5.1,1.3-5.2-3.3
		C234,197.9,234,185.4,234,172.9z"/>
	<path class="st0" d="M389,228.7c-1.3,1-2.1,1.8-3,2.3c-16.7,9.1-33.4,18.2-50,27.4c-6.5,3.5-12.9,7.2-19.3,10.8
		c-2.5,1.4-4.7,1.8-7.5,0.2c-12.5-7.3-25.1-14.3-37.7-21.5c-9.7-5.5-19.4-11-29.2-16.5c-0.2-0.1-0.4-0.2-0.6-0.4
		c-1.2-1.1-2.4-2.1-3.6-3.2c1.2-0.9,2.2-2.1,3.6-2.8c8.9-4.7,17.9-9.3,26.9-13.9c13.5-7,26.9-14.1,40.5-20.8c1.6-0.8,4.4-0.8,6,0.1
		c12.6,6.3,25,12.9,37.6,19.4c10.8,5.5,21.7,10.8,32.5,16.3C386.4,226.6,387.5,227.6,389,228.7z"/>
	<path class="st0" d="M219.7,227.7c-1.6,1.5-2.7,3-4.1,3.8c-13,7.4-26,14.7-39,22c-9.5,5.3-19.1,10.5-28.5,16
		c-2.5,1.4-4.5,1.2-6.8-0.2c-15.5-8.7-31.1-17.3-46.7-25.9c-7.4-4.1-14.9-7.9-22.3-12c-1.1-0.6-2.5-1.7-2.6-2.7
		c-0.1-0.9,1.3-2.3,2.3-2.8c9.1-4.6,18.2-9,27.3-13.6c10.7-5.4,21.5-10.9,32.2-16.3c3.8-1.9,7.6-3.9,11.3-5.9
		c4.1-2.2,7,0.9,10.1,2.4c8.3,4,16.4,8.3,24.6,12.6c13.5,7.1,26.9,14.2,40.3,21.4C218.4,226.7,219,227.2,219.7,227.7z"/>
</g>
</svg>
