<?xml version="1.0" encoding="utf-8"?>
<!-- Generator: Adobe Illustrator 19.0.0, SVG Export Plug-In . SVG Version: 6.00 Build 0)  -->
<svg version="1.1" id="Livello_1" xmlns="http://www.w3.org/2000/svg" xmlns:xlink="http://www.w3.org/1999/xlink" x="0px" y="0px"
	 viewBox="0 0 456 456" style="enable-background:new 0 0 456 456;" xml:space="preserve">
<style type="text/css">
	.st0{fill:#FFFFFF;}
</style>
<g>
	<path class="st0" d="M302.3,213.4c0.7-16.2-4.9-30.3-14.9-42.3c-8.2-9.8-18.8-16.6-31.7-19.8c-8.6-2.1-17.1-3.6-25.9-3.6
		c-11.4,0-22.3,2-32.9,6.2c-12.9,5.2-23.8,13.2-32.8,23.7c-8.9,10.4-14.5,22.6-17.1,35.9c-1.8,9.3-3.1,18.9-3,28.3
		c0.4,18.3,5.2,35.8,14.9,51.5c13.1,21,31.1,36.2,54.7,44.4c10.5,3.7,21.2,6.2,32.2,7.5c23.3,2.8,45.9-0.1,67.6-8.6
		c10.5-4.1,20.1-10.5,29.9-16c1.9-1.1,2.8-0.9,4.1,0.5c5.5,5.8,5.8,9.2-0.2,14.3c-5.8,4.9-12,9.7-18.6,13.4
		c-10.1,5.6-20.4,11-31.1,15.2c-10.8,4.3-22.3,7.1-34,8.1c-8.5,0.7-17,2.4-25.5,2c-11.2-0.5-22.3-2.3-33.4-3.9
		c-12-1.8-23.3-6.2-34.2-11.1c-11.3-5.1-21.7-11.9-31.4-19.8c-9.7-7.8-18.2-16.8-25.3-27c-6.4-9.1-11.6-18.7-15.9-29
		c-4.3-10.4-6.9-21.1-8.3-32c-1.3-10-0.7-20.3-0.2-30.4c0.4-7.3,1.5-14.7,3-21.9c2.4-11.7,5.9-23.1,12.1-33.5
		c4.7-7.9,9.4-15.9,14.9-23.2c9.7-13.1,22-23.5,35.8-32c9.9-6.1,20.3-11.2,31.4-14.4c8.8-2.5,17.9-4,27-5.4c6-1,12.1-1.7,18.1-1.4
		c8.8,0.4,17.7,1.6,26.5,2.9c12.6,1.9,24.5,6.3,35.9,12c12.4,6.1,23.5,14.2,32.9,24.4c13.6,14.6,23.4,31.6,28.1,51
		c2.7,11.2,4.8,22.9,4.5,34.3c-0.4,16.6-4.3,32.8-12.5,47.7c-5.8,10.7-12.9,20.2-21.8,28.4c-11.1,10.2-23.7,17.7-38,22.8
		c-9.3,3.3-18.8,5.3-28.5,5.6c-11.9,0.3-23.5-2-34.7-6.3c-11.4-4.4-21.2-11.1-29.6-19.9c-11.4-11.8-19.4-25.7-22.3-41.8
		c-3.2-17.5-1-34.4,8.3-50.2c8.6-14.6,20.4-25.7,36.4-31.1c19-6.4,37.1-3,53.3,8.6c12.2,8.7,19.6,20.9,22.4,35.8
		c1.5,8.3-1.2,15.5-4.7,22.6c-5.2,10.5-13.7,17.4-24.3,21.8c-12.5,5.1-24.3,3.4-35.2-4.6c-7.9-5.8-12-13.9-13.5-23.3
		c-1-6.2,2.7-14.9,7.9-17.6c1.5-0.8,4.1-0.8,5.7,0c5.3,2.7,6.5,5.7,5.7,11.7c-1.4,10.9,6.1,14,14.9,12.7c11.6-1.7,14.6-10.5,12.4-21
		c-2.3-11.5-9.8-16.7-21.5-17.1c-11.8-0.4-21.3,3.4-27.6,13.6c-1.8,2.8-2.9,6.3-3.4,9.6c-1.4,8.7-1.3,17.4,2.8,25.6
		c5.6,11.5,15.3,17.9,27.6,20.3c11.7,2.3,23.2,1.4,34.2-3.6c12-5.5,20.7-14,25.4-26.5C301.4,229.2,302.7,221.4,302.3,213.4z"/>
</g>
</svg>
