<?xml version="1.0" encoding="utf-8"?>
<!-- Generator: Adobe Illustrator 19.0.0, SVG Export Plug-In . SVG Version: 6.00 Build 0)  -->
<svg version="1.1" id="Livello_1" xmlns="http://www.w3.org/2000/svg" xmlns:xlink="http://www.w3.org/1999/xlink" x="0px" y="0px"
	 viewBox="0 0 456 456" style="enable-background:new 0 0 456 456;" xml:space="preserve">
<style type="text/css">
	.st0{fill:#FFFFFF;}
</style>
<g>
	<path class="st0" d="M244,122.6c3.5,0.7,6.3,1.3,9.1,1.9c6.4,1.5,13,2.6,19.2,4.6c13.6,4.2,25.8,11.2,37,20
		c14.6,11.5,26.9,25.2,35.7,41.5c4.4,8.1,7.4,17.1,10.3,25.9c4.2,12.8,6.3,26.2,5.2,39.7c-0.7,9-2.2,18-4.3,26.8
		c-3.6,15.6-10.6,29.7-20.1,42.7c-10.3,14-22.8,25.6-37.6,34.7c-11.6,7.1-24.2,12-37.3,15.2c-5.8,1.4-11.9,1.9-17.9,2.5
		c-4.9,0.5-9.9,1-14.8,0.7c-12.4-0.7-24.6-2.9-36.4-6.8c-14.9-5-28.5-12.7-40.4-22.7c-10.3-8.7-19.5-18.4-26-30.6
		c-4.6-8.7-9-17.4-11.1-27.1c-1.5-6.8-2.3-13.8-2.9-20.7c-0.1-1.6,1.8-3.4,2.8-5.2c1.3,1.3,3.2,2.3,3.7,3.9c4,11,8.2,22,15.2,31.6
		c3.4,4.6,7.3,8.9,11,13.3c0.3-0.2,0.7-0.5,1-0.7c-0.9-1.6-1.8-3.1-2.8-4.7c-4-6.8-8.1-13.7-12.1-20.5c-0.2-0.4-0.1-1-0.3-1.4
		c-1.4-2.3-0.6-4.6,1.3-5.3c1.1-0.5,3.7,0.9,4.7,2.1c3.6,4.7,6.5,9.8,10.1,14.5c6.7,8.8,14.9,16,25.4,20.5c-1.3-1.9-2.6-3.9-4-5.8
		c-3.5-5-7.1-10-10.4-15.1c-0.6-1-0.5-3.4,0.3-4.2c1.4-1.4,3.3-1.9,5.2,0c4.7,4.7,9.6,9.3,14.5,13.8c1.4,1.3,3.2,2.1,4.9,3.1
		c0.3-0.2,0.6-0.3,0.9-0.5c-0.8-1.7-1.6-3.5-2.4-5.1c-0.4-0.7-1.3-1.3-1.4-2.1c-0.5-2.1-1.7-4.8,0.7-5.9c1.5-0.7,4.1-0.2,5.8,0.6
		c3.5,1.7,6.7,4.1,10.1,6.1c7.6,4.3,16.2,6.4,24.6,6.7c16.4,0.6,32-3.2,43.8-15.7c10.7-11.3,14.6-24.8,12.6-40.4
		c-1.8-13.2-7.9-23.6-17.4-32.4c-3-2.8-6.6-5.1-10.2-7.2c-1-0.6-3.6-0.3-4.1,0.5c-3.3,5.5-8.8,6.5-14.4,7.7
		c-11.4,2.6-22.8,5.4-34.3,8.1c-12.7,3-25.5,6-38.2,9c-19.5,4.5-39.1,9.1-58.6,13.5c-3.4,0.8-6.5-0.3-8.7-3c-2.5-3-2.5-6.5-0.4-10
		c9.4-16.1,18.8-32.2,28.1-48.4c4.7-8.2,9.1-16.6,14.3-24.5c2.2-3.4,5.8-5.9,9.1-8.4c12.2-9.4,24.7-18.2,36.6-28
		c13.6-11.1,27-22.5,39.6-34.7c9.7-9.3,19-19.2,26.2-30.7c2.6-4.2,6.7-5.6,10.3-4c3.6,1.6,5.4,6.7,5,11.1
		c-1.4,12.1-5.8,23.2-9.6,34.6C248.7,112.3,246.4,117,244,122.6z M144.9,205.4c0.3,0.4,0.6,0.8,0.9,1.3c4.8-0.9,9.7-1.4,14.3-2.8
		c12.6-3.7,25.5-12.6,23.6-28.5c-0.2-1.7-0.9-3.4-1.4-5.1c-1.8,0.6-3.8,0.9-5.3,1.9c-9.7,6.3-17.5,14.6-24.8,23.3
		C149.5,198.7,147.3,202.1,144.9,205.4z"/>
</g>
</svg>
