<?xml version="1.0" encoding="utf-8"?>
<!-- Generator: Adobe Illustrator 19.0.0, SVG Export Plug-In . SVG Version: 6.00 Build 0)  -->
<svg version="1.1" id="Livello_1" xmlns="http://www.w3.org/2000/svg" xmlns:xlink="http://www.w3.org/1999/xlink" x="0px" y="0px"
	 viewBox="0 0 456 456" style="enable-background:new 0 0 456 456;" xml:space="preserve">
<style type="text/css">
	.st0{fill:#FFFFFF;}
</style>
<g>
	<path class="st0" d="M228,381.9c-18.9-0.8-36.6-5.8-52.7-15.4c-17.5-10.4-30.8-25.2-39.8-43.5c-5.8-11.7-9.1-24.2-10.3-37.5
		c-1.3-15.3,2.1-29.5,6.8-43.8c8.3-25.2,20.8-48.3,34.4-70.8c11-18.1,22.2-36.1,33.4-54.1c6.7-10.7,13.3-21.4,20.5-31.6
		c4.6-6.5,11-7.2,16.6,0.9c7.2,10.4,14.1,21.1,20.9,31.8c13,20.6,26.4,41.1,38.6,62.1c11.5,19.8,22,40.2,28.6,62.3
		c2.9,9.8,5.1,20,6.4,30.2c1.9,15.9-2.1,31-8.2,45.6c-4.9,11.7-11.9,22.3-20.7,31.3c-10.1,10.4-22,18.6-35.7,24
		c-10.7,4.3-21.7,7.1-33.3,7.5C231.6,381,229.8,381.6,228,381.9z M179.9,267.3c-5.7,6.3-7.6,13.1-8.2,20.3
		c-1.4,16.7,4.5,30.3,17.6,41c12.9,10.5,28.1,13.7,43.7,10.9c22.3-4,36.9-16.9,42.2-40.1c0.4-1.6-0.3-3.4-0.5-5.8
		c-16.3,21.4-36.7,30.2-61.8,21.6C191.3,307.9,180.1,291.5,179.9,267.3z"/>
</g>
</svg>
