<?xml version="1.0" encoding="utf-8"?>
<!-- Generator: Adobe Illustrator 19.0.0, SVG Export Plug-In . SVG Version: 6.00 Build 0)  -->
<svg version="1.1" id="Livello_1" xmlns="http://www.w3.org/2000/svg" xmlns:xlink="http://www.w3.org/1999/xlink" x="0px" y="0px"
	 viewBox="0 0 456 456" style="enable-background:new 0 0 456 456;" xml:space="preserve">
<style type="text/css">
	.st0{fill:#FFFFFF;}
</style>
<g>
	<path class="st0" d="M373.7,94.6c0.2,2.4,0.6,4,0.4,5.4c-2.5,15.5-9.6,28.7-19.5,40.9C343.9,154,331,164.5,317,173.7
		c-17.3,11.4-35.6,21.1-54.9,28.8c-14.9,5.9-30.1,11.3-45.1,17.1c-1,0.4-1.7,1.6-2.5,2.5c1.2,0.3,2.5,1,3.7,0.8
		c11.8-1.9,23.6-3.7,35.2-6.1c9.7-2,19.3-4.6,28.9-7.2c8.3-2.3,16.5-4.8,24.6-7.7c11.3-4.2,22.3-9.2,32-16.7c1.2-0.9,2.4-1.7,4.1-3
		c0,1.9,0.4,3.4-0.1,4.6c-5.1,15.3-15,27.1-27.7,36.4c-10,7.3-20.5,14.4-31.6,19.8c-16.2,7.9-33.2,14.3-49.9,21.1
		c-5.3,2.2-11,3.5-16.4,5.4c-1.4,0.5-2.5,1.7-3.7,2.5c1.6,3.3,4.1,2.1,6.1,1.9c7.5-0.8,14.9-1.7,22.3-3c7.7-1.4,15.5-3,23-5.2
		c10.1-3.1,20-6.7,29.9-10.5c3.6-1.4,6.7-3.9,10.1-5.8c0.3,0.2,0.7,0.4,1,0.6c-0.6,1.7-1.1,3.4-1.8,5.1c-5.5,12.9-15.6,21.4-26.8,29
		c-12.3,8.5-26,14.4-39.7,20.1c-6.7,2.8-13.7,4.6-20.6,7.1c-1.2,0.5-2.1,1.9-3.2,2.9c1.4,0.6,3,1.9,4.3,1.7
		c7.9-1.1,15.9-2.2,23.7-3.9c10.1-2.2,20.2-4.4,29.4-9.3c0.9-0.5,2.2-0.2,3.4-0.3c-0.2,1.2-0.1,2.6-0.6,3.7
		c-8.6,19.2-22.4,33.7-40.4,44.2c-11.5,6.7-24.1,10.7-37.3,12.9c-11.5,1.9-22.7,1.4-34.2-0.6c-16.8-2.9-32.1-9.1-46-18.9
		c-12.4-8.7-22.3-19.7-30-32.8c-5.7-9.7-9.4-20.2-11.4-31c-1.5-8.3-2.1-16.9-0.7-25.7c2.6-16.9,8.5-32.2,19.2-45.3
		c5.6-6.9,12-13.3,19-18.6c7.3-5.5,15.4-10.3,23.8-14c7.7-3.4,16.1-5.2,24.3-7.2c7.2-1.7,14.5-2.5,21.8-4
		c12.8-2.6,25.5-5.1,38.2-8.2c19.4-4.8,39-9.2,58.1-15.3c18.9-5.9,37.4-13.1,55.7-20.7c13.8-5.7,26.9-13.1,37.2-24.4
		C371.7,96,372.2,95.7,373.7,94.6z"/>
</g>
</svg>
