<?xml version="1.0" encoding="utf-8"?>
<!-- Generator: Adobe Illustrator 19.0.0, SVG Export Plug-In . SVG Version: 6.00 Build 0)  -->
<svg version="1.1" id="Livello_1" xmlns="http://www.w3.org/2000/svg" xmlns:xlink="http://www.w3.org/1999/xlink" x="0px" y="0px"
	 viewBox="0 0 456 456" style="enable-background:new 0 0 456 456;" xml:space="preserve">
<style type="text/css">
	.st0{fill:#FFFFFF;}
</style>
<g>
	<path class="st0" d="M259.5,351.6c-6.4,4-11.6,7.7-17.2,10.8c-11.8,6.4-22.9,3.4-33.5-3.3c-2.6-1.6-4.8-4-7-6.1
		c-1.7-1.6-2.9-1.5-4.8-0.1c-5.3,3.8-10.5,7.9-16.3,10.6c-7.7,3.7-15.8,2.9-23.7-0.4c-17-7-24.8-20.7-28.1-37.9
		c-1.3-6.8-1.1-13.3,0.7-20c0.8-3-0.4-5.2-3-7.7c-6.5-6.3-13-12.8-18.1-20.1c-5.6-8.1-10.2-17.1-14.3-26.1
		c-3.9-8.8-5.8-18.1-6.7-27.9c-1.2-12.4-0.1-24.5,3.3-36.3c3.2-11.3,7.9-21.9,14.4-31.9c6.7-10.4,14.9-19.3,24.1-27.4
		c9.8-8.7,20.9-15.9,33.1-20.8c11-4.4,22.5-7.9,34-11c6.7-1.8,13.9-2.1,20.9-2.8c4.6-0.5,9.2-0.9,13.7-0.7
		c16.8,0.8,33.2,3.3,49.3,8.7c14.6,4.9,28.1,11.8,40.5,20.8c15.1,11,27.1,24.6,36.3,41.1c6.7,12.1,11.2,24.9,12.8,38.3
		c1.3,10.9,1.3,22.3-1.4,33.4c-2.9,12.2-6.9,23.9-13.7,34.4c-4.2,6.5-9.1,12.6-14,18.6c-3.2,3.9-7.1,7.2-10.7,10.8
		c-2,1.9-2.8,3.8-2,6.9c4.7,19.6-3,42.6-20,54c-15.2,10.1-30.8,8.1-44.5-3.8C262,354,260.4,352.4,259.5,351.6z M309.5,213.7
		c-0.6-3.9-0.9-7.8-1.9-11.6c-3.2-12.7-11-22.3-21.2-30c-14.8-11.1-31.5-17.1-50.1-17.7c-5.4-0.2-10.8-0.1-16.2,0
		c-9.7,0.3-19,2.5-28,6c-12,4.7-22.5,11.7-31,21.5c-7.7,8.8-12.2,19-12.5,30.5c-0.6,17.7,8.1,31.2,21.4,41.7
		c15.7,12.4,33.8,19.1,54.1,19c4.3,0,8.6,0.3,12.9-0.1c6.1-0.6,12.4-1.1,18.2-2.7c14.5-4.1,27.6-10.5,38.5-21.5
		C303.4,238.9,309,227.7,309.5,213.7z"/>
</g>
</svg>
