<?xml version="1.0" encoding="utf-8"?>
<!-- Generator: Adobe Illustrator 19.0.0, SVG Export Plug-In . SVG Version: 6.00 Build 0)  -->
<svg version="1.1" id="Livello_1" xmlns="http://www.w3.org/2000/svg" xmlns:xlink="http://www.w3.org/1999/xlink" x="0px" y="0px"
	 viewBox="0 0 456 456" style="enable-background:new 0 0 456 456;" xml:space="preserve">
<style type="text/css">
	.st0{fill:#FFFFFF;}
</style>
<g>
	<path class="st0" d="M272.3,372c-4.4,0-8.7,0-13.1,0c-12-0.1-23.9-1.4-35.6-3.7c-11.1-2.2-22.2-3.8-33.2-6.2
		c-5.3-1.2-10.5-3.3-15.5-5.5c-14.2-6.2-27.3-14.3-39-24.6c-10.9-9.5-19.9-20.6-27.2-32.9c-7.9-13.2-13.8-27.5-16.3-42.9
		c-1.4-8.7-3-17.5-3.6-26.2c-0.4-6.1,0.7-12.3,1.5-18.4c0.7-5.6,1.5-11.2,3-16.6c2-7.2,4.3-14.3,7.4-21.1c3.8-8.3,8.3-16.3,13-24.1
		c2.6-4.4,6.4-8.1,9.6-12.2c7.2-8.9,15.9-16.2,25.2-22.9c9.8-7,20.2-13,31.8-16.5c8.2-2.5,16.3-5,24.6-7c4.9-1.2,10-1.5,15-2
		c12.1-1.2,24.1,0.2,36,2.3c12.2,2.2,23.7,6.4,34.8,11.9c14.5,7.2,27.5,16.4,38.6,28.1c10.6,11.2,19.2,23.7,25.8,37.8
		c4.7,10.2,8.4,20.6,10.6,31.5c3.3,16.3,3.8,32.7,0.9,49.3c-2.4,13.3-6.1,26.1-12,38c-4.3,8.8-10.3,16.9-15.8,25.2
		c-1.6,2.4-3.8,4.4-5.7,6.6c-2,2.3-2.2,6.2,0.4,8.3c4.3,3.4,8.9,6.6,13.7,9.2c4.2,2.3,7.4,5,7.7,9.9c0.2,5.2-3.4,8.1-7.4,10.2
		c-13.6,6.8-27.9,11.2-43,12.8c-10.6,1.1-21.3,1.5-31.9,2.2C272.3,372.4,272.3,372.2,272.3,372z M266.1,232.5
		c7.2-0.7,14-4.1,18.5-11.9c6-10.3,2.6-22.3-5.4-28.8c-1.9-1.6-3.7-0.6-4.8,1.5c-2,3.6-4,7.4-7,10.2c-6,5.7-13.6,7.5-21.7,6.3
		c-3-0.4-3.8,1.2-3.4,3.6C244.2,224.7,253.7,232.2,266.1,232.5z M165.1,210.5c0,1.1-0.4,3.2,0.1,5.1c2.6,10,11.3,15.3,19.4,16.2
		c12.6,1.3,20.3-6.5,23.7-14.6c2.4-5.8,1.2-7.1-5.1-6.4c-0.1,0-0.2,0-0.4,0c-10.4,0.8-21.8-6.4-25.8-16.1c-1.3-3.1-3.1-3.5-5.6-1.3
		C166.7,197.7,164.4,203.1,165.1,210.5z"/>
</g>
</svg>
