<?xml version="1.0" encoding="utf-8"?>
<!-- Generator: Adobe Illustrator 19.0.0, SVG Export Plug-In . SVG Version: 6.00 Build 0)  -->
<svg version="1.1" id="Livello_1" xmlns="http://www.w3.org/2000/svg" xmlns:xlink="http://www.w3.org/1999/xlink" x="0px" y="0px"
	 viewBox="0 0 456 456" style="enable-background:new 0 0 456 456;" xml:space="preserve">
<style type="text/css">
	.st0{fill:#FFFFFF;}
</style>
<g>
	<path class="st0" d="M301,361.1c-3.3,2.6-6.6,5.3-10,7.8c-13.5,10-28.8,15.8-45.1,18.6c-12.6,2.2-25.2,2.1-37.9-0.3
		c-10.5-2-20.6-4.9-29.9-9.7c-7.9-4.1-15.3-9.3-22.4-14.7c-11.6-8.8-20-20.4-26.9-33c-5.7-10.4-9.9-21.4-12.6-33.1
		c-2.7-11.7-4.1-23.4-3.6-35.2c0.5-12.2,3-24.1,8.1-35.3c1.7-3.7,3.7-7.3,5.5-11c0.5,0.1,0.9,0.1,1.4,0.2c0.2,1.3,0.7,2.6,0.7,3.9
		c-0.3,6.5,0.3,12.8,3.8,18.6c0.8,1.4,1.8,2.7,2.7,4c0.4-0.1,0.8-0.1,1.2-0.2c0.7-2.2,1.5-4.5,2.1-6.7c2.9-11,9.6-19.8,16.7-28.3
		c9.3-11.4,21.2-19.9,32.3-29.5c14.2-12.2,27.3-25.5,36.8-41.9c4.5-7.8,7.3-16.2,8.2-25.3c1.2-12-2.3-22.9-7.2-33.6
		c-0.3-0.6-0.3-1.4,0.4-2.7c3.5,3.9,7.1,7.5,10.4,11.6c8.1,10.1,14.4,21.4,18.5,33.6c5.7,17.1,8.5,34.7,3.2,52.6
		c-2,6.9-2.6,13.9-1.9,20.9c0.7,6.5,4,11.9,10.3,14.5c6.9,2.9,13.1,1.9,19.1-3.3c6.6-5.7,7.6-17.9,4.6-26
		c-2.1-5.7-5.6-10.3-9.5-14.7c-0.9-1.1-1.6-2.3-2.9-4.2c8.8,1.9,16.1,5.1,23,9.4c14.9,9.2,26.1,21.9,34,37.5
		c5,9.9,8.4,20.3,9.8,31.3c2.4,18.7,0.5,36.9-6.8,54.4c-6.6,15.9-16.9,28.9-30.4,39.3c-9.4,7.2-20,12.3-31.7,14.8
		c-0.7,0.2-1.4,0.4-2.2,0.4c-1.3,0.1-2.6,0-4,0c-0.2-0.4-0.5-0.7-0.7-1.1c1.4-1.2,2.8-2.4,4.2-3.5c10.2-7.9,15.2-18.7,17.5-31
		c2.1-10.9,0.5-21.3-3.8-31.4c-0.3-0.8-1.4-1.4-2.1-2c-0.5,0.8-1.5,1.6-1.6,2.5c-1.3,11.2-5.8,20.9-14.2,28.3
		c-8.9,7.8-19.3,12.6-32.8,11.8c21.9-8.7,32-22.6,21-44.7c-6.1-12.2-21.6-17.6-34.7-12.1c-21.3,9-24.9,25.1-14.8,45.3
		c-4.9-3.6-8.7-7.6-10.9-13c-2.1-5.2-4-10.4-6.4-16.9c-1.3,3.1-2.6,5.2-3.1,7.5c-3.8,18.3-1.8,36,8.3,51.9
		c7.8,12.5,18.9,21.7,33,26.9c8.4,3.1,16.9,4.8,25.8,5.3c15.3,1,29.7-1.7,43.3-8.8c1.1-0.6,2.5-0.7,3.8-1.1
		C300.5,360.4,300.8,360.8,301,361.1z"/>
</g>
</svg>
