<?xml version="1.0" encoding="utf-8"?>
<!-- Generator: Adobe Illustrator 19.0.0, SVG Export Plug-In . SVG Version: 6.00 Build 0)  -->
<svg version="1.1" id="Livello_1" xmlns="http://www.w3.org/2000/svg" xmlns:xlink="http://www.w3.org/1999/xlink" x="0px" y="0px"
	 viewBox="0 0 456 456" style="enable-background:new 0 0 456 456;" xml:space="preserve">
<style type="text/css">
	.st0{fill:#FFFFFF;}
</style>
<g>
	<path class="st0" d="M227.5,99c22.1,0,44.2,0.2,66.4-0.1c6.1-0.1,9.6,2.6,12.4,7.5c10.8,18.7,21.7,37.3,32.5,56
		c10,17.3,19.8,34.6,29.7,51.9c2.2,3.9,4.7,7.7,6.5,11.8c0.7,1.7,0.6,4.5-0.3,6.2c-5.5,10.1-11.3,20.1-17.1,30.1
		c-5.7,10-11.5,20-17.3,30c-6.6,11.4-13.2,22.7-19.8,34.1c-5.3,9.1-10.5,18.2-15.9,27.3c-2.2,3.7-5.5,5.3-9.9,4.2
		c-1.1-0.3-2.2-0.1-3.4-0.1c-44.1,0-88.2,0-132.4,0.1c-4.2,0-7.1-1.4-9.1-5c-6.4-11.2-12.9-22.3-19.4-33.4
		c-8.8-15.2-17.6-30.3-26.4-45.5c-3.1-5.3-6.2-10.6-9.2-15.9c-4.8-8.5-9.6-17.1-14.4-25.6c-1.5-2.7-1.7-5.1-0.1-7.9
		c5.9-10,11.6-20.1,17.5-30.2c8.3-14.4,16.6-28.7,24.9-43.1c7.3-12.5,14.6-25,21.9-37.5c1.8-3.1,3.5-6.2,5.3-9.2
		c2.1-3.5,5-5.5,9.3-5.5C182.1,99,204.8,99,227.5,99z M227.6,171c-32-1.4-56.9,26.2-57.4,55.4c-0.5,34.1,26,57.7,55.3,58.7
		c34.3,1.1,58.7-26,59.6-55.1C286.2,196.7,258.2,169.1,227.6,171z"/>
</g>
</svg>
